<mxfile host="Electron" modified="2024-01-05T18:58:43.441Z" agent="Mozilla/5.0 (Macintosh; Intel Mac OS X 10_15_7) AppleWebKit/537.36 (KHTML, like Gecko) draw.io/22.0.2 Chrome/114.0.5735.289 Electron/25.8.4 Safari/537.36" etag="qQwmKI6CfBJ2uAcJ4vGj" version="22.0.2" type="device">
  <diagram name="Page-1" id="7o7JAwcv1Ii6gmMge_fV">
    <mxGraphModel dx="994" dy="640" grid="1" gridSize="10" guides="1" tooltips="1" connect="1" arrows="1" fold="1" page="1" pageScale="1" pageWidth="827" pageHeight="1169" math="0" shadow="0">
      <root>
        <mxCell id="0" />
        <mxCell id="1" parent="0" />
        <mxCell id="wVLn-omgkhZo42_RV4cj-3" value="Calculator" style="whiteSpace=wrap;html=1;aspect=fixed;" vertex="1" parent="1">
          <mxGeometry x="220" y="30" width="80" height="80" as="geometry" />
        </mxCell>
        <mxCell id="wVLn-omgkhZo42_RV4cj-15" style="edgeStyle=orthogonalEdgeStyle;rounded=0;orthogonalLoop=1;jettySize=auto;html=1;entryX=0.5;entryY=1;entryDx=0;entryDy=0;" edge="1" parent="1" source="wVLn-omgkhZo42_RV4cj-4" target="wVLn-omgkhZo42_RV4cj-10">
          <mxGeometry relative="1" as="geometry">
            <Array as="points">
              <mxPoint x="370" y="570" />
              <mxPoint x="690" y="570" />
            </Array>
          </mxGeometry>
        </mxCell>
        <mxCell id="wVLn-omgkhZo42_RV4cj-17" style="edgeStyle=orthogonalEdgeStyle;rounded=0;orthogonalLoop=1;jettySize=auto;html=1;" edge="1" parent="1" source="wVLn-omgkhZo42_RV4cj-4" target="wVLn-omgkhZo42_RV4cj-3">
          <mxGeometry relative="1" as="geometry" />
        </mxCell>
        <mxCell id="wVLn-omgkhZo42_RV4cj-4" value="Engine" style="rounded=0;whiteSpace=wrap;html=1;" vertex="1" parent="1">
          <mxGeometry x="310" y="470" width="120" height="60" as="geometry" />
        </mxCell>
        <mxCell id="wVLn-omgkhZo42_RV4cj-5" value="" style="group" vertex="1" connectable="0" parent="1">
          <mxGeometry x="330" y="260" width="130" height="70" as="geometry" />
        </mxCell>
        <mxCell id="wVLn-omgkhZo42_RV4cj-2" value="Exchange" style="rounded=1;whiteSpace=wrap;html=1;" vertex="1" parent="wVLn-omgkhZo42_RV4cj-5">
          <mxGeometry x="-10" y="5" width="120" height="60" as="geometry" />
        </mxCell>
        <mxCell id="wVLn-omgkhZo42_RV4cj-1" value="Exchange" style="rounded=1;whiteSpace=wrap;html=1;" vertex="1" parent="wVLn-omgkhZo42_RV4cj-5">
          <mxGeometry x="-20" width="120" height="60" as="geometry" />
        </mxCell>
        <mxCell id="wVLn-omgkhZo42_RV4cj-7" value="" style="endArrow=classic;html=1;rounded=0;entryX=0.5;entryY=1;entryDx=0;entryDy=0;exitX=0.5;exitY=0;exitDx=0;exitDy=0;" edge="1" parent="1" source="wVLn-omgkhZo42_RV4cj-4" target="wVLn-omgkhZo42_RV4cj-1">
          <mxGeometry width="50" height="50" relative="1" as="geometry">
            <mxPoint x="350" y="470" as="sourcePoint" />
            <mxPoint x="400" y="420" as="targetPoint" />
          </mxGeometry>
        </mxCell>
        <mxCell id="wVLn-omgkhZo42_RV4cj-8" value="Construct necessary symbols / exchanges" style="text;html=1;align=center;verticalAlign=middle;resizable=0;points=[];autosize=1;strokeColor=none;fillColor=none;" vertex="1" parent="1">
          <mxGeometry x="440" y="380" width="250" height="30" as="geometry" />
        </mxCell>
        <mxCell id="wVLn-omgkhZo42_RV4cj-9" value="Config generator" style="whiteSpace=wrap;html=1;aspect=fixed;" vertex="1" parent="1">
          <mxGeometry x="515" y="450" width="95" height="95" as="geometry" />
        </mxCell>
        <mxCell id="wVLn-omgkhZo42_RV4cj-10" value="Ticker unifier" style="rounded=0;whiteSpace=wrap;html=1;" vertex="1" parent="1">
          <mxGeometry x="630" y="470" width="120" height="60" as="geometry" />
        </mxCell>
        <mxCell id="wVLn-omgkhZo42_RV4cj-13" style="edgeStyle=orthogonalEdgeStyle;rounded=0;orthogonalLoop=1;jettySize=auto;html=1;entryX=0.919;entryY=0.024;entryDx=0;entryDy=0;entryPerimeter=0;" edge="1" parent="1" source="wVLn-omgkhZo42_RV4cj-8" target="wVLn-omgkhZo42_RV4cj-4">
          <mxGeometry relative="1" as="geometry" />
        </mxCell>
        <mxCell id="wVLn-omgkhZo42_RV4cj-14" style="edgeStyle=orthogonalEdgeStyle;rounded=0;orthogonalLoop=1;jettySize=auto;html=1;entryX=0.492;entryY=0.933;entryDx=0;entryDy=0;entryPerimeter=0;" edge="1" parent="1" source="wVLn-omgkhZo42_RV4cj-9" target="wVLn-omgkhZo42_RV4cj-8">
          <mxGeometry relative="1" as="geometry" />
        </mxCell>
        <mxCell id="wVLn-omgkhZo42_RV4cj-16" style="edgeStyle=orthogonalEdgeStyle;rounded=0;orthogonalLoop=1;jettySize=auto;html=1;entryX=0.201;entryY=-0.008;entryDx=0;entryDy=0;entryPerimeter=0;" edge="1" parent="1" target="wVLn-omgkhZo42_RV4cj-4">
          <mxGeometry relative="1" as="geometry">
            <mxPoint x="334" y="320" as="sourcePoint" />
            <mxPoint x="330.00000000000006" y="461.43999999999994" as="targetPoint" />
            <Array as="points" />
          </mxGeometry>
        </mxCell>
        <mxCell id="wVLn-omgkhZo42_RV4cj-18" value="Listen to ws and return data to calculator" style="text;html=1;align=center;verticalAlign=middle;resizable=0;points=[];autosize=1;strokeColor=none;fillColor=none;" vertex="1" parent="1">
          <mxGeometry x="10" y="350" width="240" height="30" as="geometry" />
        </mxCell>
      </root>
    </mxGraphModel>
  </diagram>
</mxfile>
